<svg width="512" height="512" viewBox="0 0 512 512" fill="none" xmlns="http://www.w3.org/2000/svg">
<rect width="512" height="512" rx="96" fill="#1a1a2e"/>
<path d="M256 400.864L228.096 374.208C162.304 312.32 128 280.704 128 240.64C128 207.872 154.112 181.76 186.88 181.76C208.896 181.76 230.144 191.488 244.48 207.872L256 222.208L267.52 207.872C281.856 191.488 303.104 181.76 325.12 181.76C357.888 181.76 384 207.872 384 240.64C384 280.704 349.696 312.32 283.904 374.208L256 400.864Z" fill="#e94560"/>
<path d="M214 240L230 292L256 254L282 292L298 240" stroke="white" stroke-width="20" stroke-linecap="round" stroke-linejoin="round"/>
</svg>
